<?xml version="1.0" encoding="utf-8"?>
<!-- Generator: Adobe Illustrator 16.0.0, SVG Export Plug-In . SVG Version: 6.00 Build 0)  -->
<!DOCTYPE svg PUBLIC "-//W3C//DTD SVG 1.1//EN" "http://www.w3.org/Graphics/SVG/1.1/DTD/svg11.dtd">
<svg version="1.1" id="Layer_1" xmlns="http://www.w3.org/2000/svg" xmlns:xlink="http://www.w3.org/1999/xlink" x="0px" y="0px"
	 width="164.099px" height="267.642px" viewBox="0 0 164.099 267.642" enable-background="new 0 0 164.099 267.642"
	 xml:space="preserve">
<g>
	<path fill="#f9f7f6" d="M163.457,0l-36.233,36.29H0.747v121.353h162.71V0z M105.473,82.865c1.788,0.847,4.701,1.811,8.669,2.867
		c5.157,1.445,9.484,2.906,12.879,4.346c3.564,1.511,6.717,3.932,9.369,7.193c2.717,3.341,4.094,7.743,4.094,13.087
		c0,5.465-1.454,10.131-4.32,13.868c-2.841,3.703-6.71,6.485-11.491,8.268c-4.697,1.751-9.972,2.64-15.681,2.64
		c-6.753,0-13.337-1.072-19.563-3.184c-7.887-2.674-15.562-8.561-15.914-8.811c-9.788-7.636-20.254-18.605-23.519-23.853v33.867
		H24.417V59.417h21.018l0.426,0.52c0.19,0.291,18.22,29.162,36.353,44.272c3.79,3.158,9.046,5.248,13.086,6.787
		c5.989,2.28,11.64,3.13,13.886,3.13c1.484,0,2.627-0.257,3.405-0.75c0.402-0.255,0.86-0.69,0.86-1.791
		c0-0.658-0.221-1.635-2.082-2.519c-1.837-0.87-4.811-1.816-8.845-2.81c-5.074-1.3-9.371-2.674-12.792-4.091
		c-3.562-1.475-6.678-3.79-9.266-6.877c-2.657-3.173-4.004-7.427-4.004-12.644c0-5.038,1.358-9.518,4.034-13.314
		c2.661-3.775,6.473-6.704,11.328-8.703c4.777-1.967,10.375-2.962,16.648-2.962c5.672,0,11.409,0.806,17.05,2.395
		c5.647,1.598,10.622,3.743,14.798,6.386l1.082,0.683l-9.779,20.606l-1.356-0.784c-3.781-2.188-8.051-4.138-12.703-5.798
		c-4.576-1.636-8.319-2.464-11.129-2.464c-2.937,0-2.937,1.117-2.937,1.713C103.498,81.061,103.701,82.033,105.473,82.865z"/>
	<g>
		<g>
			<path fill="#f9f7f6" d="M25.234,175.13h10.34v35.372h-9.651l-14.02-18.158v18.158H1.292V175.13h9.854l14.087,18.072V175.13z"/>
			<path fill="#f9f7f6" d="M96.75,183.62c1.493,0.874,2.616,2.103,3.457,3.682c0.841,1.581,1.217,3.412,1.217,5.496v17.705H90.264
				v-14.427c0-1.142-0.351-2.058-0.957-2.748c-0.605-0.691-1.418-1.035-2.396-1.035c-1.108,0-2.038,0.404-2.693,1.212
				c-0.657,0.805-1.027,1.883-1.027,3.226v13.772H72.035v-27.754h11.157v3.998c1.087-1.445,2.158-2.545,3.585-3.303
				c1.429-0.757,3.053-1.135,4.834-1.135C93.528,182.309,95.25,182.746,96.75,183.62z"/>
			<path fill="#f9f7f6" d="M105.23,182.749h25.305v6.671l-11.42,12.376h11.963v8.706h-26.393v-6.711l11.604-12.607H105.23V182.749z"
				/>
			<path fill="#f9f7f6" d="M156.731,184.151c2.353,1.158,4.169,2.806,5.45,4.94c1.275,2.136,1.912,4.632,1.912,7.49
				s-0.637,5.354-1.912,7.489c-1.281,2.135-3.097,3.791-5.45,4.967c-2.353,1.176-5.093,1.764-8.218,1.764s-5.87-0.587-8.221-1.764
				c-2.354-1.176-4.168-2.832-5.445-4.967c-1.279-2.135-1.919-4.631-1.919-7.489s0.64-5.354,1.919-7.49
				c1.277-2.134,3.091-3.782,5.445-4.94c2.351-1.162,5.096-1.741,8.221-1.741S154.379,182.989,156.731,184.151z M145.515,192.848
				c-0.759,0.976-1.138,2.271-1.138,3.882c0,1.614,0.378,2.91,1.138,3.884c0.753,0.975,1.756,1.464,2.999,1.464
				c1.24,0,2.241-0.489,2.999-1.464c0.757-0.974,1.133-2.271,1.133-3.884c0-1.612-0.376-2.906-1.133-3.882
				c-0.758-0.975-1.759-1.462-2.999-1.462C147.271,191.386,146.268,191.874,145.515,192.848z"/>
			<path fill="#f9f7f6" d="M63.774,185.006c-2.237-1.797-5.356-2.697-9.36-2.697c-2.047,0-4.244,0.227-6.579,0.68
				c-2.336,0.455-4.685,1.119-7.038,1.993l2.522,7.564c1.515-0.571,3.018-1.007,4.516-1.311c1.493-0.304,2.78-0.455,3.856-0.455
				c1.377,0,2.428,0.309,3.15,0.83c0.723,0.522,1.1,1.207,1.132,2.294h-6.302c-3.497,0-6.151,0.758-7.966,2.169
				c-1.813,1.413-2.723,3.455-2.723,6.179c0,2.655,0.813,4.752,2.445,6.317c1.63,1.563,3.893,2.337,6.787,2.337
				c3.495,0,6.135-1.165,7.767-3.485v3.081h11.154v-17.956C67.137,189.317,66.012,186.805,63.774,185.006z M48.635,206.221v-9.207
				l7.979,4.603L48.635,206.221z"/>
		</g>
	</g>
	<g>
		<g>
			<path fill="#f9f7f6" d="M21.082,226.546c-2.021-0.645-3.803-0.969-5.343-0.969c-1.715,0-3.078,0.324-4.079,0.969
				c-1.003,0.644-1.506,1.541-1.506,2.684c0,1.04,0.351,1.908,1.048,2.606c0.697,0.701,1.572,1.272,2.631,1.721
				c1.057,0.446,2.498,0.939,4.325,1.475c2.541,0.753,4.629,1.506,6.256,2.257c1.63,0.753,3.018,1.863,4.163,3.33
				c1.146,1.468,1.72,3.402,1.72,5.801c0,2.292-0.618,4.289-1.853,5.989c-1.236,1.701-2.938,3.001-5.104,3.893
				c-2.167,0.897-4.648,1.344-7.439,1.344c-2.937,0-5.799-0.544-8.597-1.639c-2.791-1.092-5.228-2.553-7.305-4.378l3.01-6.124
				c1.897,1.755,4.03,3.135,6.391,4.136c2.364,1.005,4.565,1.506,6.607,1.506c2.006,0,3.583-0.384,4.727-1.156
				c1.146-0.769,1.718-1.817,1.718-3.14c0-1.076-0.347-1.963-1.046-2.662c-0.699-0.696-1.585-1.26-2.657-1.691
				c-1.076-0.429-2.545-0.912-4.406-1.45c-2.543-0.753-4.623-1.484-6.231-2.202c-1.613-0.715-2.99-1.8-4.137-3.25
				c-1.146-1.449-1.72-3.355-1.72-5.721c0-2.184,0.582-4.09,1.745-5.72c1.166-1.63,2.813-2.892,4.943-3.787
				c2.133-0.895,4.593-1.343,7.386-1.343c2.437,0,4.843,0.357,7.226,1.074c2.381,0.719,4.501,1.685,6.366,2.899l-2.9,6.286
				C25.086,228.102,23.107,227.19,21.082,226.546z"/>
			<path fill="#f9f7f6" d="M49.097,234.386c-2.327,0-4.216,0.789-5.666,2.365c-1.448,1.576-2.176,3.617-2.176,6.124
				c0,2.579,0.728,4.653,2.176,6.23c1.45,1.574,3.339,2.365,5.666,2.365c3.438,0,6.017-1.128,7.734-3.385l4.351,3.599
				c-1.288,1.863-2.988,3.295-5.104,4.297c-2.113,1.002-4.564,1.504-7.358,1.504c-2.828,0-5.345-0.61-7.546-1.825
				c-2.203-1.217-3.912-2.93-5.132-5.133c-1.217-2.203-1.824-4.733-1.824-7.599c0-2.902,0.616-5.46,1.853-7.683
				c1.238-2.219,2.954-3.939,5.157-5.157c2.203-1.216,4.735-1.827,7.602-1.827c2.612,0,4.95,0.458,7.008,1.37
				c2.06,0.913,3.736,2.214,5.024,3.895l-4.246,4.03C54.684,235.443,52.177,234.386,49.097,234.386z"/>
			<path fill="#f9f7f6" d="M86.563,230.089c2.274,1.218,4.047,2.927,5.315,5.129c1.275,2.204,1.908,4.738,1.908,7.601
				c0,2.902-0.633,5.461-1.908,7.684c-1.269,2.218-3.042,3.94-5.315,5.157c-2.276,1.215-4.9,1.825-7.869,1.825
				c-3.008,0-5.658-0.61-7.949-1.825c-2.293-1.217-4.077-2.939-5.345-5.157c-1.273-2.223-1.908-4.782-1.908-7.684
				c0-2.863,0.635-5.396,1.908-7.601c1.269-2.202,3.052-3.912,5.345-5.129c2.291-1.216,4.941-1.827,7.949-1.827
				C81.663,228.263,84.288,228.873,86.563,230.089z M72.786,236.643c-1.508,1.612-2.257,3.706-2.257,6.286
				c0,2.576,0.749,4.672,2.257,6.284c1.502,1.611,3.472,2.416,5.908,2.416c2.361,0,4.297-0.805,5.803-2.416
				c1.5-1.612,2.255-3.708,2.255-6.284c0-2.58-0.755-4.674-2.255-6.286c-1.506-1.612-3.441-2.416-5.803-2.416
				C76.258,234.227,74.288,235.031,72.786,236.643z"/>
			<path fill="#f9f7f6" d="M120.296,230.089c2.273,1.218,4.047,2.927,5.317,5.129c1.271,2.204,1.908,4.738,1.908,7.601
				c0,2.902-0.638,5.461-1.908,7.684c-1.271,2.218-3.044,3.94-5.317,5.157c-2.276,1.215-4.898,1.825-7.87,1.825
				c-3.009,0-5.658-0.61-7.949-1.825c-2.291-1.217-4.077-2.939-5.341-5.157c-1.279-2.223-1.912-4.782-1.912-7.684
				c0-2.863,0.633-5.396,1.912-7.601c1.264-2.202,3.05-3.912,5.341-5.129c2.291-1.216,4.939-1.827,7.949-1.827
				C115.397,228.263,118.02,228.873,120.296,230.089z M106.521,236.643c-1.508,1.612-2.259,3.706-2.259,6.286
				c0,2.576,0.751,4.672,2.259,6.284c1.502,1.611,3.47,2.416,5.906,2.416c2.362,0,4.299-0.805,5.801-2.416
				c1.506-1.612,2.254-3.708,2.254-6.284c0-2.58-0.749-4.674-2.254-6.286c-1.502-1.612-3.439-2.416-5.801-2.416
				C109.99,234.227,108.022,235.031,106.521,236.643z"/>
			<path fill="#f9f7f6" d="M157.626,230.117c2.058,1.234,3.653,2.962,4.782,5.185c1.13,2.221,1.69,4.778,1.69,7.68
				c0,2.864-0.552,5.389-1.662,7.573c-1.112,2.183-2.689,3.888-4.728,5.105c-2.043,1.215-4.408,1.825-7.091,1.825
				c-2.149,0-4.03-0.42-5.677-1.263c-1.649-0.842-2.978-2.068-4.066-3.678v15.097h-7.076v-39.18h7.076v4.741
				c1.089-1.61,2.355-2.833,3.985-3.678c1.627-0.839,3.508-1.262,5.657-1.262C153.202,228.263,155.568,228.881,157.626,230.117z
				 M154.753,249.026c1.504-1.631,2.261-3.717,2.261-6.26c0-2.542-0.757-4.616-2.261-6.229s-3.435-2.42-5.799-2.42
				c-2.402,0-4.353,0.807-5.856,2.42c-1.506,1.613-2.257,3.687-2.257,6.229c0,2.581,0.751,4.672,2.257,6.284
				c1.504,1.613,3.454,2.419,5.856,2.419C151.318,251.47,153.249,250.653,154.753,249.026z"/>
		</g>
	</g>
</g>
</svg>
